<svg width="40" height="31" viewBox="0 0 40 31" xmlns="http://www.w3.org/2000/svg">
    <g fill="#FFF" fill-rule="evenodd">
        <path d="M.625 31c-.489.008-.69-.2-.606-.625L4.097 1.882c.084-.424.293-.64.63-.645L18.42 1c.458-.008.645.201.56.625l-.65 4.68c-.054.425-.263.64-.63.646l-7.785.134-.811 5.953 6.915-.12c.458-.007.644.201.56.626l-.61 4.407c-.053.425-.263.64-.629.646l-7.053.122-.852 6.225 7.603-.132c.457-.007.66.2.606.625l-.696 4.68c-.054.425-.264.64-.63.646L.625 31zM28.487 30.998c-3.097.055-5.376-.862-6.837-2.754-1.46-1.89-1.951-4.68-1.473-8.37l1.286-9.345c.48-3.534 1.542-6.158 3.182-7.874C26.285.941 28.609.056 31.615.002c2.076-.037 3.79.389 5.143 1.276 1.353.889 2.292 2.148 2.816 3.776.525 1.63.564 3.562.121 5.797-.082.434-.29.654-.62.66l-5.322.096c-.451.008-.636-.205-.552-.64.274-1.52.262-2.71-.039-3.57-.3-.86-.991-1.282-2.074-1.263-.963.018-1.678.371-2.148 1.06-.47.688-.81 1.854-1.023 3.497l-1.287 9.254c-.24 1.736-.174 2.995.2 3.777.374.781 1.087 1.163 2.14 1.144 1.052-.02 1.796-.488 2.232-1.409.435-.919.7-2.107.796-3.562.023-.434.23-.654.62-.661l5.323-.096a.572.572 0 0 1 .431.155c.107.107.163.268.167.484-.154 3.374-1.04 6.072-2.66 8.096-1.62 2.023-4.084 3.065-7.392 3.125"/>
    </g>
</svg>
